<?xml version="1.0" encoding="utf-8"?>
<!DOCTYPE svg PUBLIC "-//W3C//DTD SVG 1.1//EN" "http://www.w3.org/Graphics/SVG/1.1/DTD/svg11.dtd">
<svg version="1.1" id="Layer_1" xmlns="http://www.w3.org/2000/svg" xmlns:xlink="http://www.w3.org/1999/xlink" x="0px" y="0px"
	 width="117px" height="31.215px" viewBox="0 0 117 31.215" enable-background="new 0 0 117 31.215" xml:space="preserve">
<g>
	<defs>
		<rect id="SVGID_1_" x="0" y="0" width="117" height="31.215"/>
	</defs>
	<clipPath id="SVGID_2_">
		<use xlink:href="#SVGID_1_"  overflow="visible"/>
	</clipPath>
	<path clip-path="url(#SVGID_2_)" fill="#FFFFFF" d="M18.546,14.515c-0.031-3.45,2.824-5.127,2.954-5.204
		c-1.616-2.359-4.121-2.679-5.003-2.705c-2.104-0.221-4.146,1.259-5.216,1.259c-1.094,0-2.745-1.238-4.523-1.202
		c-2.29,0.036-4.433,1.361-5.607,3.421c-2.424,4.196-0.616,10.363,1.707,13.755c1.161,1.663,2.519,3.518,4.296,3.453
		c1.739-0.071,2.388-1.109,4.486-1.109c2.078,0,2.688,1.109,4.501,1.065c1.865-0.028,3.04-1.669,4.161-3.345
		c1.343-1.901,1.882-3.78,1.903-3.877C22.163,20.013,18.584,18.646,18.546,14.515"/>
	<path clip-path="url(#SVGID_2_)" fill="#FFFFFF" d="M15.123,4.374C16.058,3.205,16.698,1.614,16.52,0
		c-1.354,0.059-3.046,0.935-4.021,2.08c-0.861,1.007-1.631,2.658-1.434,4.212C12.587,6.404,14.148,5.524,15.123,4.374"/>
	<path clip-path="url(#SVGID_2_)" fill="#FFFFFF" d="M43.727,27.051h-2.428l-1.332-4.182h-4.625l-1.268,4.182h-2.366l4.583-14.237
		h2.831L43.727,27.051z M39.565,21.115l-1.204-3.718c-0.126-0.381-0.367-1.275-0.718-2.683h-0.043
		c-0.142,0.607-0.367,1.501-0.676,2.683l-1.183,3.718H39.565z"/>
	<path clip-path="url(#SVGID_2_)" fill="#FFFFFF" d="M55.493,21.793c0,1.745-0.473,3.125-1.423,4.139
		c-0.85,0.901-1.905,1.352-3.165,1.352c-1.36,0-2.338-0.484-2.932-1.456v5.387h-2.28V20.162c0-1.1-0.028-2.223-0.085-3.377h2.006
		l0.128,1.628h0.043c0.761-1.226,1.915-1.839,3.464-1.839c1.213,0,2.223,0.478,3.032,1.434
		C55.087,18.969,55.493,20.229,55.493,21.793 M53.169,21.876c0-0.999-0.225-1.824-0.677-2.473c-0.493-0.675-1.155-1.013-1.986-1.013
		c-0.562,0-1.073,0.189-1.53,0.56c-0.458,0.374-0.757,0.863-0.897,1.469c-0.07,0.282-0.106,0.511-0.106,0.694v1.712
		c0,0.745,0.229,1.376,0.686,1.892c0.458,0.514,1.052,0.77,1.785,0.77c0.859,0,1.527-0.331,2.006-0.993
		C52.93,23.834,53.169,22.96,53.169,21.876"/>
	<path clip-path="url(#SVGID_2_)" fill="#FFFFFF" d="M67.299,21.793c0,1.745-0.474,3.125-1.422,4.139
		c-0.85,0.901-1.907,1.352-3.167,1.352c-1.358,0-2.337-0.484-2.931-1.456v5.387h-2.281V20.162c0-1.1-0.029-2.223-0.084-3.377h2.006
		l0.127,1.628h0.043c0.759-1.226,1.914-1.839,3.465-1.839c1.21,0,2.221,0.478,3.03,1.434C66.894,18.969,67.299,20.229,67.299,21.793
		 M64.975,21.876c0-0.999-0.225-1.824-0.677-2.473c-0.492-0.675-1.154-1.013-1.984-1.013c-0.563,0-1.074,0.189-1.532,0.56
		c-0.459,0.374-0.756,0.863-0.898,1.469c-0.07,0.282-0.107,0.511-0.107,0.694v1.712c0,0.745,0.23,1.376,0.687,1.892
		c0.459,0.511,1.052,0.77,1.785,0.77c0.861,0,1.53-0.331,2.006-0.993C64.735,23.834,64.975,22.96,64.975,21.876"/>
	<path clip-path="url(#SVGID_2_)" fill="#FFFFFF" d="M80.501,23.058c0,1.213-0.423,2.196-1.265,2.958
		c-0.927,0.829-2.221,1.245-3.877,1.245c-1.533,0-2.761-0.294-3.688-0.886l0.528-1.901c0.999,0.592,2.1,0.888,3.295,0.888
		c0.861,0,1.529-0.195,2.006-0.582c0.479-0.387,0.719-0.904,0.719-1.552c0-0.577-0.199-1.062-0.592-1.456
		c-0.395-0.395-1.048-0.762-1.964-1.1c-2.494-0.929-3.739-2.29-3.739-4.078c0-1.168,0.439-2.124,1.32-2.87
		c0.879-0.748,2.044-1.12,3.496-1.12c1.295,0,2.374,0.225,3.231,0.676l-0.571,1.858c-0.807-0.437-1.718-0.656-2.736-0.656
		c-0.805,0-1.437,0.2-1.889,0.595c-0.378,0.349-0.571,0.779-0.571,1.288c0,0.562,0.22,1.029,0.655,1.393
		c0.381,0.338,1.069,0.706,2.07,1.1c1.225,0.494,2.126,1.068,2.702,1.73C80.212,21.25,80.501,22.074,80.501,23.058"/>
	<path clip-path="url(#SVGID_2_)" fill="#FFFFFF" d="M88.063,18.497h-2.515v4.985c0,1.268,0.444,1.9,1.33,1.9
		c0.408,0,0.746-0.035,1.014-0.105l0.063,1.731c-0.449,0.169-1.042,0.252-1.774,0.252c-0.9,0-1.605-0.276-2.113-0.825
		c-0.507-0.549-0.761-1.471-0.761-2.767v-5.174h-1.496v-1.712h1.496V14.9l2.241-0.676v2.557h2.515V18.497z"/>
	<path clip-path="url(#SVGID_2_)" fill="#FFFFFF" d="M99.382,21.833c0,1.578-0.449,2.873-1.351,3.886
		c-0.942,1.043-2.196,1.563-3.759,1.563c-1.509,0-2.707-0.499-3.602-1.498c-0.894-1.001-1.341-2.26-1.341-3.781
		c0-1.59,0.461-2.893,1.383-3.908c0.923-1.013,2.165-1.52,3.729-1.52c1.507,0,2.715,0.5,3.632,1.499
		C98.947,19.047,99.382,20.298,99.382,21.833 M97.018,21.885c0-0.94-0.204-1.746-0.611-2.42c-0.478-0.816-1.162-1.224-2.05-1.224
		c-0.913,0-1.615,0.408-2.091,1.224c-0.41,0.674-0.612,1.495-0.612,2.464c0,0.94,0.202,1.75,0.612,2.422
		c0.494,0.816,1.182,1.224,2.073,1.224c0.871,0,1.555-0.418,2.051-1.243C96.807,23.642,97.018,22.829,97.018,21.885"/>
	<path clip-path="url(#SVGID_2_)" fill="#FFFFFF" d="M106.799,18.792c-0.226-0.042-0.467-0.063-0.719-0.063
		c-0.802,0-1.422,0.302-1.859,0.908c-0.38,0.537-0.569,1.211-0.569,2.029v5.386h-2.281v-7.034c0-1.181-0.021-2.26-0.067-3.23h1.987
		l0.084,1.965h0.063c0.241-0.676,0.622-1.219,1.14-1.627c0.508-0.369,1.058-0.551,1.649-0.551c0.211,0,0.401,0.016,0.571,0.042
		L106.799,18.792z"/>
	<path clip-path="url(#SVGID_2_)" fill="#FFFFFF" d="M117,21.433c0,0.409-0.026,0.753-0.082,1.033h-6.842
		c0.024,1.016,0.357,1.791,0.992,2.327c0.576,0.479,1.321,0.718,2.237,0.718c1.013,0,1.938-0.161,2.768-0.487l0.358,1.583
		c-0.971,0.423-2.119,0.633-3.442,0.633c-1.592,0-2.841-0.468-3.75-1.401c-0.907-0.937-1.361-2.194-1.361-3.769
		c0-1.548,0.42-2.836,1.267-3.866c0.886-1.097,2.083-1.646,3.59-1.646c1.479,0,2.6,0.548,3.361,1.646
		C116.698,19.074,117,20.152,117,21.433 M114.825,20.841c0.017-0.676-0.134-1.259-0.443-1.753c-0.396-0.635-1.003-0.952-1.817-0.952
		c-0.746,0-1.352,0.308-1.816,0.929c-0.379,0.493-0.605,1.087-0.674,1.776H114.825z"/>
	<path clip-path="url(#SVGID_2_)" fill="#FFFFFF" d="M38.471,7.719H37.28l-0.654-2.054h-2.274L33.73,7.719h-1.162l2.253-6.994h1.39
		L38.471,7.719z M36.428,4.803l-0.591-1.828c-0.064-0.185-0.18-0.625-0.354-1.317h-0.021c-0.069,0.297-0.18,0.737-0.331,1.317
		l-0.581,1.828H36.428z"/>
	<path clip-path="url(#SVGID_2_)" fill="#FFFFFF" d="M44.096,2.676l-1.909,5.043h-1.09L39.25,2.676h1.203l0.862,2.667
		c0.145,0.442,0.267,0.869,0.363,1.276h0.03c0.083-0.367,0.203-0.792,0.364-1.276l0.849-2.667H44.096z"/>
	<path clip-path="url(#SVGID_2_)" fill="#FFFFFF" d="M49.182,7.719h-1.007l-0.084-0.581H48.06c-0.345,0.463-0.837,0.695-1.472,0.695
		c-0.478,0-0.862-0.154-1.154-0.456C45.172,7.1,45.041,6.757,45.041,6.35c0-0.616,0.256-1.086,0.772-1.411
		c0.515-0.326,1.241-0.484,2.173-0.477V4.366c0-0.662-0.348-0.995-1.047-0.995c-0.498,0-0.936,0.125-1.318,0.373l-0.227-0.736
		c0.469-0.289,1.048-0.435,1.733-0.435c1.323,0,1.982,0.696,1.982,2.086v1.858C49.109,7.02,49.133,7.421,49.182,7.719 M48.02,5.986
		V5.207c-1.239-0.021-1.857,0.318-1.857,1.017c0,0.263,0.071,0.46,0.217,0.592c0.145,0.131,0.328,0.196,0.547,0.196
		c0.247,0,0.477-0.078,0.686-0.233c0.21-0.156,0.339-0.354,0.387-0.596L48.02,5.986z"/>
	<path clip-path="url(#SVGID_2_)" fill="#FFFFFF" d="M52.306,1.17c0,0.203-0.067,0.363-0.2,0.489c-0.13,0.125-0.3,0.186-0.508,0.186
		c-0.187,0-0.343-0.064-0.47-0.19c-0.128-0.128-0.194-0.29-0.194-0.483c0-0.194,0.067-0.353,0.198-0.477
		c0.131-0.124,0.294-0.187,0.488-0.187c0.193,0,0.355,0.063,0.487,0.187C52.24,0.819,52.306,0.977,52.306,1.17 M52.18,7.719h-1.12
		V2.676h1.12V7.719z"/>
	<rect x="54.173" y="0.362" clip-path="url(#SVGID_2_)" fill="#FFFFFF" width="1.12" height="7.357"/>
	<path clip-path="url(#SVGID_2_)" fill="#FFFFFF" d="M61.073,7.719h-1.007l-0.081-0.581h-0.029
		c-0.348,0.463-0.838,0.695-1.475,0.695c-0.476,0-0.861-0.154-1.151-0.456C57.065,7.1,56.933,6.757,56.933,6.35
		c0-0.616,0.258-1.086,0.774-1.411c0.516-0.326,1.239-0.484,2.174-0.477V4.366c0-0.662-0.349-0.995-1.047-0.995
		c-0.499,0-0.938,0.125-1.318,0.373l-0.229-0.736c0.47-0.289,1.048-0.435,1.733-0.435c1.323,0,1.982,0.696,1.982,2.086v1.858
		C60.999,7.02,61.025,7.421,61.073,7.719 M59.911,5.986V5.207c-1.24-0.021-1.857,0.318-1.857,1.017c0,0.263,0.071,0.46,0.217,0.592
		c0.145,0.131,0.327,0.196,0.547,0.196c0.247,0,0.475-0.078,0.686-0.233c0.208-0.156,0.339-0.354,0.387-0.596L59.911,5.986z"/>
	<path clip-path="url(#SVGID_2_)" fill="#FFFFFF" d="M67.765,5.125c0,0.851-0.234,1.529-0.704,2.034
		c-0.416,0.449-0.923,0.675-1.526,0.675c-0.72,0-1.249-0.297-1.588-0.892h-0.021l-0.061,0.779h-0.956
		c0.026-0.408,0.04-0.862,0.04-1.36V0.363h1.121v3.05c0.333-0.56,0.872-0.841,1.618-0.841c0.612,0,1.112,0.233,1.497,0.702
		C67.574,3.738,67.765,4.358,67.765,5.125 M66.627,5.166c0-0.492-0.112-0.892-0.335-1.204c-0.242-0.339-0.571-0.509-0.986-0.509
		c-0.277,0-0.525,0.09-0.746,0.27c-0.222,0.18-0.37,0.418-0.445,0.717c-0.029,0.117-0.041,0.234-0.041,0.352v0.881
		c0,0.348,0.112,0.645,0.344,0.893c0.233,0.248,0.521,0.373,0.869,0.373c0.422,0,0.749-0.158,0.986-0.476
		C66.508,6.145,66.627,5.713,66.627,5.166"/>
	<rect x="69.426" y="0.362" clip-path="url(#SVGID_2_)" fill="#FFFFFF" width="1.122" height="7.357"/>
	<path clip-path="url(#SVGID_2_)" fill="#FFFFFF" d="M76.692,4.959c0,0.202-0.017,0.37-0.042,0.507h-3.362
		c0.013,0.499,0.175,0.879,0.486,1.142c0.286,0.236,0.65,0.354,1.101,0.354c0.498,0,0.951-0.079,1.358-0.24l0.174,0.78
		c-0.476,0.207-1.039,0.31-1.689,0.31c-0.782,0-1.396-0.23-1.843-0.689c-0.446-0.46-0.668-1.077-0.668-1.853
		c0-0.759,0.206-1.393,0.624-1.899c0.435-0.538,1.022-0.809,1.763-0.809c0.726,0,1.275,0.271,1.651,0.809
		C76.541,3.799,76.692,4.33,76.692,4.959 M75.622,4.669c0.005-0.332-0.065-0.62-0.217-0.861c-0.196-0.31-0.492-0.467-0.893-0.467
		c-0.367,0-0.664,0.151-0.895,0.456c-0.185,0.244-0.294,0.533-0.329,0.872H75.622z"/>
	<path clip-path="url(#SVGID_2_)" fill="#FFFFFF" d="M85.958,5.155c0,0.776-0.221,1.412-0.665,1.91
		c-0.465,0.513-1.08,0.768-1.847,0.768c-0.74,0-1.33-0.245-1.77-0.737c-0.438-0.491-0.658-1.11-0.658-1.858
		c0-0.781,0.226-1.422,0.681-1.919c0.453-0.497,1.062-0.746,1.83-0.746c0.74,0,1.336,0.245,1.787,0.736
		C85.743,3.785,85.958,4.402,85.958,5.155 M84.794,5.182c0-0.462-0.1-0.858-0.301-1.19c-0.236-0.4-0.569-0.598-1.004-0.598
		c-0.45,0-0.794,0.199-1.028,0.598C82.26,4.324,82.16,4.728,82.16,5.203c0,0.464,0.102,0.859,0.302,1.19
		c0.244,0.4,0.581,0.601,1.018,0.601c0.426,0,0.763-0.204,1.002-0.609C84.692,6.044,84.794,5.644,84.794,5.182"/>
	<path clip-path="url(#SVGID_2_)" fill="#FFFFFF" d="M91.998,7.719h-1.12V4.823c0-0.893-0.339-1.339-1.017-1.339
		c-0.334,0-0.6,0.123-0.809,0.369c-0.21,0.245-0.312,0.535-0.312,0.866v2.999h-1.122V4.117c0-0.444-0.014-0.924-0.04-1.444h0.986
		l0.052,0.779h0.031c0.131-0.241,0.325-0.442,0.581-0.601c0.304-0.187,0.642-0.281,1.016-0.281c0.471,0,0.863,0.153,1.174,0.458
		c0.388,0.373,0.581,0.93,0.581,1.67V7.719z"/>
	<path clip-path="url(#SVGID_2_)" fill="#FFFFFF" d="M99.333,3.516H98.1v2.45c0,0.622,0.215,0.933,0.652,0.933
		c0.201,0,0.367-0.017,0.496-0.052l0.033,0.852c-0.221,0.084-0.512,0.125-0.872,0.125c-0.442,0-0.786-0.136-1.036-0.404
		c-0.249-0.271-0.376-0.724-0.376-1.361V3.516h-0.737V2.676h0.737V1.752l1.099-0.332v1.255h1.236V3.516z"/>
	<path clip-path="url(#SVGID_2_)" fill="#FFFFFF" d="M105.258,7.719h-1.121V4.844c0-0.907-0.34-1.359-1.017-1.359
		c-0.518,0-0.875,0.263-1.069,0.789c-0.035,0.112-0.052,0.245-0.052,0.404v3.041h-1.12V0.363h1.12v3.029h0.021
		c0.352-0.547,0.861-0.819,1.514-0.819c0.467,0,0.848,0.151,1.155,0.456c0.378,0.38,0.57,0.946,0.57,1.691V7.719z"/>
	<path clip-path="url(#SVGID_2_)" fill="#FFFFFF" d="M111.029,4.959c0,0.202-0.013,0.37-0.042,0.507h-3.361
		c0.013,0.499,0.176,0.879,0.486,1.142c0.283,0.236,0.65,0.354,1.098,0.354c0.499,0,0.954-0.079,1.358-0.24l0.177,0.78
		c-0.477,0.207-1.042,0.31-1.692,0.31c-0.78,0-1.395-0.23-1.843-0.689c-0.446-0.46-0.669-1.077-0.669-1.853
		c0-0.759,0.207-1.393,0.623-1.899c0.435-0.538,1.024-0.809,1.762-0.809c0.729,0,1.279,0.271,1.652,0.809
		C110.879,3.799,111.029,4.33,111.029,4.959 M109.96,4.669c0.007-0.332-0.067-0.62-0.217-0.861c-0.195-0.31-0.491-0.467-0.893-0.467
		c-0.367,0-0.665,0.151-0.893,0.456c-0.188,0.244-0.296,0.533-0.331,0.872H109.96z"/>
</g>
</svg>
